Coordinates
version=1
nRows=21
nColumns=38
inDegrees=no

Units are S.I. units (second, meters, Newtons, ...)
If the header above contains a line with 'inDegrees', this indicates whether rotational values are in degrees (yes) or radians (no).

endheader
time	pelvis_tilt	pelvis_list	pelvis_rotation	pelvis_tx	pelvis_ty	pelvis_tz	hip_flexion_r	hip_adduction_r	hip_rotation_r	knee_angle_r	ankle_angle_r	subtalar_angle_r	mtp_angle_r	hip_flexion_l	hip_adduction_l	hip_rotation_l	knee_angle_l	ankle_angle_l	subtalar_angle_l	mtp_angle_l	lumbar_extension	lumbar_bending	lumbar_rotation	arm_flex_r	arm_add_r	arm_rot_r	elbow_flex_r	pro_sup_r	wrist_flex_r	wrist_dev_r	arm_flex_l	arm_add_l	arm_rot_l	elbow_flex_l	pro_sup_l	wrist_flex_l	wrist_dev_l
85	-2.52206	1.34246	1.02423	0.735793	-0.693848	1.00961	0.122944	0.0951122	-0.214974	0	-0.22171	0	0	0.217148	-0.289343	-0.28564	0.276404	-0.220816	0	0	0.163877	0.188718	-0.0578938	-0.0717673	-0.256172	0.308124	0.317693	1.5103	0	0	-0.167746	-0.642598	0.598557	1.21918	1.5708	0	0
85.01	-2.46862	1.35776	0.987701	0.737016	-0.693036	1.01103	0.1026	0.0950196	-0.232707	0	-0.21971	0	0	0.214241	-0.28993	-0.2732	0.298619	-0.213521	0	0	0.135092	0.189616	-0.0521063	-0.0699725	-0.249606	0.247143	0.320175	1.5708	0	0	-0.147798	-0.651204	0.597477	1.24015	1.5708	0	0
85.02	-2.4408	1.36343	0.975922	0.738325	-0.692471	1.01149	0.0936478	0.0948902	-0.24351	0	-0.218934	0	0	0.224928	-0.288883	-0.260155	0.32545	-0.208307	0	0	0.123339	0.191003	-0.046731	-0.0698558	-0.250373	0.241946	0.321555	1.5708	0	0	-0.129805	-0.658675	0.600704	1.25864	1.5708	0	0
85.03	-2.41224	1.36329	0.967488	0.739845	-0.691499	1.0113	0.0899481	0.0980768	-0.254481	0	-0.218208	0	0	0.244449	-0.295296	-0.251462	0.355201	-0.209194	0	0	0.11753	0.19522	-0.045209	-0.0702437	-0.251469	0.236511	0.322649	1.5708	0	0	-0.110736	-0.666215	0.605831	1.27757	1.5708	0	0
85.04	-2.38317	1.36489	0.958663	0.741506	-0.690584	1.01131	0.0844973	0.10015	-0.265459	0	-0.217551	0	0	0.262497	-0.29838	-0.243285	0.385912	-0.208133	0	0	0.110044	0.198508	-0.0429363	-0.0699275	-0.252367	0.231192	0.322056	1.5708	0	0	-0.0897715	-0.673385	0.613171	1.29577	1.5708	0	0
85.05	-2.35374	1.36769	0.948751	0.743135	-0.689789	1.01153	0.0779245	0.10161	-0.275333	0	-0.21692	0	0	0.277628	-0.299145	-0.230451	0.413352	-0.207781	0	0	0.101535	0.201174	-0.0394028	-0.0694635	-0.25309	0.226142	0.32044	1.5708	0	0	-0.0664035	-0.680757	0.624179	1.31278	1.5708	0	0
85.06	-2.32583	1.37041	0.94031	0.744792	-0.689099	1.01176	0.07154	0.102851	-0.284579	0	-0.216156	0	0	0.2925	-0.299134	-0.217401	0.439824	-0.20819	0	0	0.0939043	0.203337	-0.0359915	-0.068607	-0.25338	0.221541	0.317034	1.5708	0	0	-0.04278	-0.687884	0.636126	1.32923	1.5708	0	0
85.07	-2.30365	1.37229	0.938032	0.746533	-0.688473	1.01192	0.0666811	0.103552	-0.293986	0	-0.215145	0	0	0.308159	-0.298716	-0.208483	0.464772	-0.209459	0	0	0.0887838	0.204641	-0.0332565	-0.0663053	-0.252332	0.217988	0.308847	1.5708	0	0	-0.0186436	-0.69487	0.649858	1.34473	1.5708	0	0
85.08	-2.28252	1.37295	0.934447	0.748086	-0.687912	1.01194	0.062416	0.10524	-0.295804	0	-0.216065	0	0	0.324801	-0.299328	-0.203823	0.490999	-0.209462	0	0	0.0849451	0.206801	-0.0287144	-0.0640881	-0.253334	0.224927	0.301336	1.5708	0	0	0.00461161	-0.700981	0.663197	1.35978	1.5708	0	0
85.09	-2.2636	1.37506	0.934551	0.749868	-0.68747	1.01214	0.0576539	0.105355	-0.304211	0	-0.214956	0	0	0.339021	-0.296259	-0.192405	0.514526	-0.21069	0	0	0.0807299	0.207393	-0.0247764	-0.0633635	-0.253653	0.223167	0.29509	1.5708	0	0	0.0302936	-0.706978	0.68024	1.3733	1.5708	0	0
85.1	-2.23838	1.38109	0.927714	0.75176	-0.687294	1.01273	0.0487973	0.103932	-0.316474	0	-0.212595	0	0	0.346809	-0.294346	-0.195818	0.535603	-0.215578	0	0	0.0723021	0.206182	-0.0191853	-0.0631333	-0.254136	0.221788	0.289741	1.5708	0	0	0.0589817	-0.713068	0.701074	1.38577	1.5708	0	0
85.11	-2.23183	1.38072	0.939206	0.753562	-0.686883	1.01269	0.0479614	0.103553	-0.32168	0	-0.211491	0	0	0.360945	-0.290732	-0.191489	0.551249	-0.216658	0	0	0.0728819	0.206123	-0.0159153	-0.0640671	-0.255839	0.224671	0.285964	1.5708	0	0	0.0841907	-0.717901	0.720024	1.3969	1.5708	0	0
85.12	-2.24686	1.37173	0.979009	0.755458	-0.685456	1.01194	0.0586066	0.104357	-0.328	0	-0.209967	0	0	0.397055	-0.282624	-0.160916	0.583371	-0.216757	0	0	0.0844955	0.206507	-0.0195559	-0.0651179	-0.257003	0.228521	0.281659	1.5708	0	0	0.111749	-0.722536	0.742436	1.40637	1.5708	0	0
85.13	-2.25443	1.36248	1.01088	0.757824	-0.684579	1.011	0.0678484	0.105607	-0.337621	0	-0.208129	0	0	0.425445	-0.274196	-0.136252	0.601675	-0.21418	0	0	0.0980446	0.207939	-0.0227828	-0.0691238	-0.259694	0.233885	0.27867	1.5708	0	0	0.139442	-0.726037	0.768341	1.41541	1.5708	0	0
85.14	-2.25592	1.35901	1.03045	0.759924	-0.684592	1.0107	0.070608	0.104969	-0.344343	0	-0.206187	0	0	0.439376	-0.267617	-0.131274	0.607303	-0.209418	0	0	0.105521	0.207233	-0.0203083	-0.073014	-0.261927	0.240166	0.275315	1.5708	0	0	0.166566	-0.729466	0.795188	1.42382	1.5708	0	0
85.15	-2.3368	1.3815	1.12971	0.76194	-0.68408	1.01472	0.058243	0.0751455	-0.35328	0	-0.205287	0	0	0.422629	-0.250517	-0.189334	0.584897	-0.230476	0	0	0.0890149	0.178091	-0.0166471	-0.0626634	-0.255868	0.254383	0.25797	1.5708	0	0	0.203581	-0.734236	0.828526	1.42162	1.5708	0	0
85.16	-2.24784	1.36064	1.05507	0.764215	-0.685153	1.01094	0.0668175	0.10118	-0.358421	0	-0.197217	0	0	0.450475	-0.254962	-0.138222	0.602725	-0.193979	0	0	0.109681	0.202314	-0.011346	-0.0813224	-0.267233	0.257281	0.273181	1.5708	0	0	0.225996	-0.735969	0.855563	1.43951	1.5708	0	0
85.17	-2.2455	1.36074	1.06866	0.76641	-0.685444	1.01099	0.0659834	0.0993072	-0.365446	0	-0.194759	0	0	0.455144	-0.248781	-0.143929	0.595024	-0.191245	0	0	0.112217	0.199363	-0.0074503	-0.0864505	-0.270046	0.260284	0.275802	1.5708	0	0	0.25267	-0.737822	0.88157	1.44689	1.5708	0	0
85.18	-2.24867	1.35861	1.08698	0.768454	-0.685718	1.01085	0.0686211	0.0975844	-0.374638	0	-0.192601	0	0	0.460521	-0.242902	-0.151964	0.581582	-0.189773	0	0	0.11728	0.196039	-0.00349098	-0.0912836	-0.272389	0.262565	0.278139	1.5708	0	0	0.278586	-0.739557	0.907469	1.45327	1.5708	0	0
85.19	-2.2492	1.35809	1.10125	0.770499	-0.686263	1.01082	0.068759	0.0959499	-0.38139	0	-0.191634	0	0	0.463215	-0.237711	-0.162668	0.567058	-0.188801	0	0	0.11993	0.192156	0.00106616	-0.0946593	-0.27436	0.266095	0.279396	1.5708	0	0	0.301342	-0.740961	0.929252	1.45982	1.5708	0	0
85.2	-2.09937	1.2864	0.944749	0.774179	-0.688267	1.00294	0.11053	0.168044	-0.359071	0	-0.188722	0	0	0.531158	-0.321288	-0.175168	0.605847	-0.1621	0	0	0.182788	0.273778	0.0206694	-0.142254	-0.308389	0.243974	0.323647	1.5708	0	0	0.308335	-0.720862	0.953011	1.4736	1.5708	0	0
